<svg xmlns="http://www.w3.org/2000/svg" viewBox="0 0 548 283">
  <g transform="matrix(1.33333,0,0,-1.33333,-122.888,420.829)">
    <path d="m 176.3433,141.899 v -28.4236 c 16.4129,0.8963 31.3398,7.3743 42.9126,17.5759 l -20.1133,20.1133 c -6.3493,-5.1358 -14.2038,-8.479 -22.7993,-9.2656" fill="#80bd54" stroke="#fff" stroke-width="18.75"/>
    <path d="m 199.3431,217.1645 20.1055,20.1047 c -11.5228,10.226 -26.399,16.7547 -42.7739,17.7256 v -28.434 c 8.5552,-0.8485 16.3675,-4.2342 22.6684,-9.3963" fill="#44328a" stroke="#fff" stroke-width="18.75"/>
    <path d="m 214.7281,179.8792 c -0.8779,-8.5955 -4.3143,-16.431 -9.5355,-22.7381 l 20.1005,-20.0996 c 10.2895,11.5223 16.871,26.4249 17.8693,42.8377 z" fill="#a61a14" stroke="#fff" stroke-width="18.75"/>
    <path d="m 214.7485,188.3863 h 28.4267 c -0.9423,16.4098 -7.4733,31.3228 -17.712,42.8669 l -20.1079,-20.1047 c 5.1758,-6.3261 8.5607,-14.169 9.3932,-22.7622" fill="#fcbf00" stroke="#fff" stroke-width="18.75"/>
    <path d="m 168.1676,226.5622 v 28.4312 c -17.877,-1.0588 -33.9721,-8.7401 -45.8634,-20.6283 -12.8265,-12.8296 -20.7635,-30.547 -20.7635,-50.118 0,-19.5746 7.937,-37.2942 20.7635,-50.1185 11.8134,-11.8187 27.7892,-19.4757 45.5329,-20.6093 v 28.4446 c -9.9136,1.0618 -18.8056,5.5275 -25.4863,12.2082 -7.6969,7.6969 -12.456,18.3283 -12.456,30.075 0,11.7409 4.7591,22.3731 12.456,30.0694 6.7527,6.7555 15.7723,11.2476 25.8168,12.2457" fill="#a61a14" stroke="#fff" stroke-width="18.75"/>
    <path d="m 171.5496,264.746 c 0,0 -2.7504,15.9514 7.865,28.6103 0,0 9.5831,12.227 25.062,12.6967 0,0 5.3459,-13.1695 -6.19,-27.7597 0,0 -10.6682,-14.1182 -26.737,-13.5473" fill="#80bd54" stroke="#fff" stroke-width="18.75"/>
    <path d="m 293.0238,167.131 h -5.5734 v 11.7629 H 275.4026 V 167.131 h -5.5735 v 27.2424 h 5.5735 v -10.4423 h 12.0478 v 10.4423 h 5.5734 z" fill="#a61a14" stroke="#fff" stroke-width="18.75"/>
    <path d="m 312.1758,189.7067 c -1.294,0 -2.4706,-0.2186 -3.5299,-0.6588 -1.0619,-0.4402 -1.9792,-1.0619 -2.7635,-1.8567 -0.785,-0.8008 -1.393,-1.7422 -1.8173,-2.8281 -0.4264,-1.0882 -0.6404,-2.2893 -0.6404,-3.6097 0,-1.3234 0.214,-2.5341 0.6404,-3.6337 0.4243,-1.1018 1.0323,-2.0412 1.8173,-2.8275 0.7843,-0.7844 1.7016,-1.3984 2.7635,-1.8386 1.0593,-0.4402 2.2359,-0.6588 3.5299,-0.6588 1.2374,0 2.3899,0.2186 3.4651,0.6588 1.0724,0.4402 2.001,1.0542 2.7853,1.8386 0.7872,0.7863 1.3952,1.7257 1.8355,2.8275 0.4402,1.0996 0.6616,2.3103 0.6616,3.6337 0,1.3204 -0.2214,2.5215 -0.6616,3.6097 -0.4403,1.0859 -1.0483,2.0273 -1.8355,2.8281 -0.7843,0.7948 -1.7129,1.4165 -2.7853,1.8567 -1.0752,0.4402 -2.2277,0.6588 -3.4651,0.6588 z m -0.043,5.1599 c 2.0063,0 3.8925,-0.3577 5.6559,-1.0755 1.7606,-0.7123 3.295,-1.7016 4.5995,-2.969 1.3076,-1.2674 2.3397,-2.759 3.0946,-4.4793 0.7577,-1.7181 1.1367,-3.583 1.1367,-5.5894 0,-2.0086 -0.379,-3.8766 -1.1367,-5.5947 -0.7549,-1.7203 -1.787,-3.2119 -3.0946,-4.4793 -1.3045,-1.2623 -2.8389,-2.2567 -4.5995,-2.969 -1.7634,-0.7177 -3.6496,-1.0724 -5.6559,-1.0724 -2.0087,0 -3.8946,0.3547 -5.656,1.0724 -1.7606,0.7123 -3.2865,1.7067 -4.5805,2.969 -1.294,1.2674 -2.3188,2.759 -3.0733,4.4793 -0.758,1.7181 -1.1367,3.5861 -1.1367,5.5947 0,2.0064 0.3787,3.8713 1.1367,5.5894 0.7545,1.7203 1.7875,3.2119 3.0943,4.4793 1.3076,1.2674 2.8338,2.2567 4.5807,2.969 1.7476,0.7178 3.6261,1.0755 5.6348,1.0755" fill="#a61a14" stroke="#fff" stroke-width="18.75"/>
    <path d="m 336.9393,189.4592 v -7.8006 H 341.6 c 1.3232,0 2.3397,0.3571 3.0575,1.0746 0.7146,0.7154 1.0723,1.6653 1.0723,2.8465 0,1.1557 -0.3577,2.092 -1.0723,2.8072 -0.7178,0.7146 -1.7343,1.0723 -3.0575,1.0723 z m 4.7038,4.9142 c 1.4292,0 2.7451,-0.2056 3.9399,-0.6217 1.1956,-0.4104 2.2303,-1.0026 3.0946,-1.7742 0.8696,-0.7704 1.5451,-1.6968 2.0253,-2.785 0.4802,-1.0882 0.7229,-2.2916 0.7229,-3.6128 0,-1.7869 -0.4272,-3.3477 -1.2802,-4.682 -0.8538,-1.3362 -2.0222,-2.3609 -3.5084,-3.0756 l 7.6782,-10.6903 h -6.2753 l -7.0566,9.6149 h -4.0442 v -9.6149 h -5.5729 v 27.2416 z" fill="#a61a14" stroke="#fff" stroke-width="18.75"/>
    <path d="m 377.2208,189.3368 h -8.7483 v -22.205 h -5.5735 v 22.205 h -8.7075 v 5.0366 h 23.0293 z" fill="#a61a14" stroke="#fff" stroke-width="18.75"/>
    <path d="m 386.4674,167.1304 h -5.5738 v 27.2415 h 5.5738 z" fill="#a61a14" stroke="#fff" stroke-width="18.75"/>
    <path d="m 401.1996,194.8657 c 2.1722,0 4.0235,-0.4884 5.5525,-1.4649 1.5262,-0.974 2.6892,-2.2068 3.4863,-3.695 l -3.7964,-2.9296 c -0.6588,0.9899 -1.408,1.7635 -2.2513,2.3134 -0.8348,0.5496 -1.8218,0.8266 -2.9477,0.8266 -0.9363,0 -1.7343,-0.2158 -2.3959,-0.6429 -0.6619,-0.4267 -0.9901,-1.0936 -0.9901,-2.001 0,-0.8002 0.2778,-1.4029 0.8274,-1.8136 0.5491,-0.4136 1.334,-0.8567 2.3505,-1.321 l 3.0968,-1.3629 c 2.1425,-0.9657 3.7993,-2.044 4.9732,-3.2419 1.1684,-1.1949 1.7529,-2.7718 1.7529,-4.7243 0,-1.2645 -0.248,-2.4094 -0.7418,-3.4288 -0.4961,-1.0165 -1.1716,-1.8756 -2.0223,-2.5767 -0.8538,-0.7018 -1.8567,-1.2378 -3.0143,-1.6092 -1.1557,-0.3727 -2.4066,-0.5573 -3.7565,-0.5573 -2.3933,0 -4.4926,0.5497 -6.2935,1.6487 -1.8014,1.1018 -3.2148,2.5613 -4.2287,4.3755 l 3.8392,2.8888 c 0.3549,-0.5224 0.7518,-1.0162 1.1951,-1.4828 0.44,-0.4697 0.9287,-0.8887 1.4647,-1.2623 0.5363,-0.3705 1.1367,-0.667 1.7954,-0.8855 0.6617,-0.2217 1.4035,-0.3336 2.2278,-0.3336 1.211,0 2.1555,0.2639 2.8276,0.7874 0.6755,0.5224 1.0111,1.2674 1.0111,2.2278 0,0.8801 -0.3039,1.542 -0.9065,1.9791 -0.6058,0.4431 -1.4596,0.9097 -2.5586,1.4088 l -2.8896,1.3181 c -0.9658,0.4403 -1.8513,0.9151 -2.6649,1.4242 -0.8084,0.5096 -1.5021,1.0783 -2.0843,1.7129 -0.5763,0.6322 -1.0293,1.334 -1.3603,2.1053 -0.3306,0.7682 -0.4964,1.6351 -0.4964,2.5986 0,1.1843 0.2353,2.2512 0.7041,3.2011 0.4643,0.9468 1.0996,1.7606 1.8998,2.4327 0.7926,0.6778 1.7447,1.1906 2.8466,1.5503 1.0995,0.3577 2.2838,0.534 3.5481,0.534" fill="#a61a14" stroke="#fff" stroke-width="18.75"/>
    <path d="m 428.6894,189.7067 c -1.294,0 -2.4738,-0.2186 -3.5303,-0.6588 -1.0618,-0.4402 -1.9822,-1.0619 -2.7663,-1.8567 -0.7821,-0.8008 -1.3901,-1.7422 -1.8142,-2.8281 -0.4266,-1.0882 -0.6406,-2.2893 -0.6406,-3.6097 0,-1.3234 0.214,-2.5341 0.6406,-3.6337 0.4241,-1.1018 1.0321,-2.0412 1.8142,-2.8275 0.7841,-0.7844 1.7045,-1.3984 2.7663,-1.8386 1.0565,-0.4402 2.2363,-0.6588 3.5303,-0.6588 1.2371,0 2.3896,0.2186 3.4651,0.6588 1.0723,0.4402 2.001,1.0542 2.785,1.8386 0.7875,0.7863 1.3955,1.7257 1.8355,2.8275 0.4402,1.0996 0.6596,2.3103 0.6596,3.6337 0,1.3204 -0.2194,2.5215 -0.6596,3.6097 -0.44,1.0859 -1.048,2.0273 -1.8355,2.8281 -0.784,0.7948 -1.7127,1.4165 -2.785,1.8567 -1.0755,0.4402 -2.228,0.6588 -3.4651,0.6588 z m -0.0434,5.1599 c 2.0064,0 3.8926,-0.3577 5.6532,-1.0755 1.7611,-0.7123 3.295,-1.7016 4.6023,-2.969 1.3048,-1.2674 2.3369,-2.759 3.0946,-4.4793 0.7549,-1.7181 1.1367,-3.583 1.1367,-5.5894 0,-2.0086 -0.3818,-3.8766 -1.1367,-5.5947 -0.7577,-1.7203 -1.7898,-3.2119 -3.0946,-4.4793 -1.3073,-1.2623 -2.8412,-2.2567 -4.6023,-2.969 -1.7606,-0.7177 -3.6468,-1.0724 -5.6532,-1.0724 -2.0114,0 -3.8945,0.3547 -5.6559,1.0724 -1.7603,0.7123 -3.2865,1.7067 -4.5834,2.969 -1.2911,1.2674 -2.3159,2.759 -3.0736,4.4793 -0.7545,1.7181 -1.1358,3.5861 -1.1358,5.5947 0,2.0064 0.3813,3.8713 1.1358,5.5894 0.7577,1.7203 1.791,3.2119 3.0955,4.4793 1.3099,1.2674 2.8357,2.2567 4.5827,2.969 1.7456,0.7178 3.6233,1.0755 5.6347,1.0755" fill="#a61a14" stroke="#fff" stroke-width="18.75"/>
    <path d="m 453.4503,189.4592 v -7.8006 h 4.663 c 1.3213,0 2.3397,0.3571 3.0575,1.0746 0.7123,0.7154 1.0723,1.6653 1.0723,2.8465 0,1.1557 -0.36,2.092 -1.0723,2.8072 -0.7178,0.7146 -1.7362,1.0723 -3.0575,1.0723 z m 4.7061,4.9142 c 1.4301,0 2.7451,-0.2056 3.9402,-0.6217 1.1956,-0.4104 2.2308,-1.0026 3.0951,-1.7742 0.8697,-0.7704 1.5421,-1.6968 2.0245,-2.785 0.4802,-1.0882 0.7231,-2.2916 0.7231,-3.6128 0,-1.7869 -0.4266,-3.3477 -1.2835,-4.682 -0.8507,-1.3362 -2.0222,-2.3609 -3.505,-3.0756 l 7.6751,-10.6903 h -6.2745 l -7.0566,9.6149 h -4.0445 v -9.6149 h -5.5706 v 27.2416 z" fill="#a61a14" stroke="#fff" stroke-width="18.75"/>
    <path d="m 493.734,189.3368 h -8.7505 v -22.205 h -5.5704 v 22.205 h -8.7105 v 5.0366 h 23.0314 z" fill="#a61a14" stroke="#fff" stroke-width="18.75"/>
  </g>
  <g transform="matrix(1.33333,0,0,-1.33333,-122.888,420.829)">
    <path d="m 176.3433,141.899 v -28.4236 c 16.4129,0.8963 31.3398,7.3743 42.9126,17.5759 l -20.1133,20.1133 c -6.3493,-5.1358 -14.2038,-8.479 -22.7993,-9.2656" fill="#80bd54"/>
    <path d="m 199.3431,217.1645 20.1055,20.1047 c -11.5228,10.226 -26.399,16.7547 -42.7739,17.7256 v -28.434 c 8.5552,-0.8485 16.3675,-4.2342 22.6684,-9.3963" fill="#44328a"/>
    <path d="m 214.7281,179.8792 c -0.8779,-8.5955 -4.3143,-16.431 -9.5355,-22.7381 l 20.1005,-20.0996 c 10.2895,11.5223 16.871,26.4249 17.8693,42.8377 z" fill="#a61a14"/>
    <path d="m 214.7485,188.3863 h 28.4267 c -0.9423,16.4098 -7.4733,31.3228 -17.712,42.8669 l -20.1079,-20.1047 c 5.1758,-6.3261 8.5607,-14.169 9.3932,-22.7622" fill="#fcbf00"/>
    <path d="m 168.1676,226.5622 v 28.4312 c -17.877,-1.0588 -33.9721,-8.7401 -45.8634,-20.6283 -12.8265,-12.8296 -20.7635,-30.547 -20.7635,-50.118 0,-19.5746 7.937,-37.2942 20.7635,-50.1185 11.8134,-11.8187 27.7892,-19.4757 45.5329,-20.6093 v 28.4446 c -9.9136,1.0618 -18.8056,5.5275 -25.4863,12.2082 -7.6969,7.6969 -12.456,18.3283 -12.456,30.075 0,11.7409 4.7591,22.3731 12.456,30.0694 6.7527,6.7555 15.7723,11.2476 25.8168,12.2457" fill="#a61a14"/>
    <path d="m 171.5496,264.746 c 0,0 -2.7504,15.9514 7.865,28.6103 0,0 9.5831,12.227 25.062,12.6967 0,0 5.3459,-13.1695 -6.19,-27.7597 0,0 -10.6682,-14.1182 -26.737,-13.5473" fill="#80bd54"/>
    <path d="m 293.0238,167.131 h -5.5734 v 11.7629 H 275.4026 V 167.131 h -5.5735 v 27.2424 h 5.5735 v -10.4423 h 12.0478 v 10.4423 h 5.5734 z" fill="#a61a14"/>
    <path d="m 312.1758,189.7067 c -1.294,0 -2.4706,-0.2186 -3.5299,-0.6588 -1.0619,-0.4402 -1.9792,-1.0619 -2.7635,-1.8567 -0.785,-0.8008 -1.393,-1.7422 -1.8173,-2.8281 -0.4264,-1.0882 -0.6404,-2.2893 -0.6404,-3.6097 0,-1.3234 0.214,-2.5341 0.6404,-3.6337 0.4243,-1.1018 1.0323,-2.0412 1.8173,-2.8275 0.7843,-0.7844 1.7016,-1.3984 2.7635,-1.8386 1.0593,-0.4402 2.2359,-0.6588 3.5299,-0.6588 1.2374,0 2.3899,0.2186 3.4651,0.6588 1.0724,0.4402 2.001,1.0542 2.7853,1.8386 0.7872,0.7863 1.3952,1.7257 1.8355,2.8275 0.4402,1.0996 0.6616,2.3103 0.6616,3.6337 0,1.3204 -0.2214,2.5215 -0.6616,3.6097 -0.4403,1.0859 -1.0483,2.0273 -1.8355,2.8281 -0.7843,0.7948 -1.7129,1.4165 -2.7853,1.8567 -1.0752,0.4402 -2.2277,0.6588 -3.4651,0.6588 z m -0.043,5.1599 c 2.0063,0 3.8925,-0.3577 5.6559,-1.0755 1.7606,-0.7123 3.295,-1.7016 4.5995,-2.969 1.3076,-1.2674 2.3397,-2.759 3.0946,-4.4793 0.7577,-1.7181 1.1367,-3.583 1.1367,-5.5894 0,-2.0086 -0.379,-3.8766 -1.1367,-5.5947 -0.7549,-1.7203 -1.787,-3.2119 -3.0946,-4.4793 -1.3045,-1.2623 -2.8389,-2.2567 -4.5995,-2.969 -1.7634,-0.7177 -3.6496,-1.0724 -5.6559,-1.0724 -2.0087,0 -3.8946,0.3547 -5.656,1.0724 -1.7606,0.7123 -3.2865,1.7067 -4.5805,2.969 -1.294,1.2674 -2.3188,2.759 -3.0733,4.4793 -0.758,1.7181 -1.1367,3.5861 -1.1367,5.5947 0,2.0064 0.3787,3.8713 1.1367,5.5894 0.7545,1.7203 1.7875,3.2119 3.0943,4.4793 1.3076,1.2674 2.8338,2.2567 4.5807,2.969 1.7476,0.7178 3.6261,1.0755 5.6348,1.0755" fill="#a61a14"/>
    <path d="m 336.9393,189.4592 v -7.8006 H 341.6 c 1.3232,0 2.3397,0.3571 3.0575,1.0746 0.7146,0.7154 1.0723,1.6653 1.0723,2.8465 0,1.1557 -0.3577,2.092 -1.0723,2.8072 -0.7178,0.7146 -1.7343,1.0723 -3.0575,1.0723 z m 4.7038,4.9142 c 1.4292,0 2.7451,-0.2056 3.9399,-0.6217 1.1956,-0.4104 2.2303,-1.0026 3.0946,-1.7742 0.8696,-0.7704 1.5451,-1.6968 2.0253,-2.785 0.4802,-1.0882 0.7229,-2.2916 0.7229,-3.6128 0,-1.7869 -0.4272,-3.3477 -1.2802,-4.682 -0.8538,-1.3362 -2.0222,-2.3609 -3.5084,-3.0756 l 7.6782,-10.6903 h -6.2753 l -7.0566,9.6149 h -4.0442 v -9.6149 h -5.5729 v 27.2416 z" fill="#a61a14"/>
    <path d="m 377.2208,189.3368 h -8.7483 v -22.205 h -5.5735 v 22.205 h -8.7075 v 5.0366 h 23.0293 z" fill="#a61a14"/>
    <path d="m 386.4674,167.1304 h -5.5738 v 27.2415 h 5.5738 z" fill="#a61a14"/>
    <path d="m 401.1996,194.8657 c 2.1722,0 4.0235,-0.4884 5.5525,-1.4649 1.5262,-0.974 2.6892,-2.2068 3.4863,-3.695 l -3.7964,-2.9296 c -0.6588,0.9899 -1.408,1.7635 -2.2513,2.3134 -0.8348,0.5496 -1.8218,0.8266 -2.9477,0.8266 -0.9363,0 -1.7343,-0.2158 -2.3959,-0.6429 -0.6619,-0.4267 -0.9901,-1.0936 -0.9901,-2.001 0,-0.8002 0.2778,-1.4029 0.8274,-1.8136 0.5491,-0.4136 1.334,-0.8567 2.3505,-1.321 l 3.0968,-1.3629 c 2.1425,-0.9657 3.7993,-2.044 4.9732,-3.2419 1.1684,-1.1949 1.7529,-2.7718 1.7529,-4.7243 0,-1.2645 -0.248,-2.4094 -0.7418,-3.4288 -0.4961,-1.0165 -1.1716,-1.8756 -2.0223,-2.5767 -0.8538,-0.7018 -1.8567,-1.2378 -3.0143,-1.6092 -1.1557,-0.3727 -2.4066,-0.5573 -3.7565,-0.5573 -2.3933,0 -4.4926,0.5497 -6.2935,1.6487 -1.8014,1.1018 -3.2148,2.5613 -4.2287,4.3755 l 3.8392,2.8888 c 0.3549,-0.5224 0.7518,-1.0162 1.1951,-1.4828 0.44,-0.4697 0.9287,-0.8887 1.4647,-1.2623 0.5363,-0.3705 1.1367,-0.667 1.7954,-0.8855 0.6617,-0.2217 1.4035,-0.3336 2.2278,-0.3336 1.211,0 2.1555,0.2639 2.8276,0.7874 0.6755,0.5224 1.0111,1.2674 1.0111,2.2278 0,0.8801 -0.3039,1.542 -0.9065,1.9791 -0.6058,0.4431 -1.4596,0.9097 -2.5586,1.4088 l -2.8896,1.3181 c -0.9658,0.4403 -1.8513,0.9151 -2.6649,1.4242 -0.8084,0.5096 -1.5021,1.0783 -2.0843,1.7129 -0.5763,0.6322 -1.0293,1.334 -1.3603,2.1053 -0.3306,0.7682 -0.4964,1.6351 -0.4964,2.5986 0,1.1843 0.2353,2.2512 0.7041,3.2011 0.4643,0.9468 1.0996,1.7606 1.8998,2.4327 0.7926,0.6778 1.7447,1.1906 2.8466,1.5503 1.0995,0.3577 2.2838,0.534 3.5481,0.534" fill="#a61a14"/>
    <path d="m 428.6894,189.7067 c -1.294,0 -2.4738,-0.2186 -3.5303,-0.6588 -1.0618,-0.4402 -1.9822,-1.0619 -2.7663,-1.8567 -0.7821,-0.8008 -1.3901,-1.7422 -1.8142,-2.8281 -0.4266,-1.0882 -0.6406,-2.2893 -0.6406,-3.6097 0,-1.3234 0.214,-2.5341 0.6406,-3.6337 0.4241,-1.1018 1.0321,-2.0412 1.8142,-2.8275 0.7841,-0.7844 1.7045,-1.3984 2.7663,-1.8386 1.0565,-0.4402 2.2363,-0.6588 3.5303,-0.6588 1.2371,0 2.3896,0.2186 3.4651,0.6588 1.0723,0.4402 2.001,1.0542 2.785,1.8386 0.7875,0.7863 1.3955,1.7257 1.8355,2.8275 0.4402,1.0996 0.6596,2.3103 0.6596,3.6337 0,1.3204 -0.2194,2.5215 -0.6596,3.6097 -0.44,1.0859 -1.048,2.0273 -1.8355,2.8281 -0.784,0.7948 -1.7127,1.4165 -2.785,1.8567 -1.0755,0.4402 -2.228,0.6588 -3.4651,0.6588 z m -0.0434,5.1599 c 2.0064,0 3.8926,-0.3577 5.6532,-1.0755 1.7611,-0.7123 3.295,-1.7016 4.6023,-2.969 1.3048,-1.2674 2.3369,-2.759 3.0946,-4.4793 0.7549,-1.7181 1.1367,-3.583 1.1367,-5.5894 0,-2.0086 -0.3818,-3.8766 -1.1367,-5.5947 -0.7577,-1.7203 -1.7898,-3.2119 -3.0946,-4.4793 -1.3073,-1.2623 -2.8412,-2.2567 -4.6023,-2.969 -1.7606,-0.7177 -3.6468,-1.0724 -5.6532,-1.0724 -2.0114,0 -3.8945,0.3547 -5.6559,1.0724 -1.7603,0.7123 -3.2865,1.7067 -4.5834,2.969 -1.2911,1.2674 -2.3159,2.759 -3.0736,4.4793 -0.7545,1.7181 -1.1358,3.5861 -1.1358,5.5947 0,2.0064 0.3813,3.8713 1.1358,5.5894 0.7577,1.7203 1.791,3.2119 3.0955,4.4793 1.3099,1.2674 2.8357,2.2567 4.5827,2.969 1.7456,0.7178 3.6233,1.0755 5.6347,1.0755" fill="#a61a14"/>
    <path d="m 453.4503,189.4592 v -7.8006 h 4.663 c 1.3213,0 2.3397,0.3571 3.0575,1.0746 0.7123,0.7154 1.0723,1.6653 1.0723,2.8465 0,1.1557 -0.36,2.092 -1.0723,2.8072 -0.7178,0.7146 -1.7362,1.0723 -3.0575,1.0723 z m 4.7061,4.9142 c 1.4301,0 2.7451,-0.2056 3.9402,-0.6217 1.1956,-0.4104 2.2308,-1.0026 3.0951,-1.7742 0.8697,-0.7704 1.5421,-1.6968 2.0245,-2.785 0.4802,-1.0882 0.7231,-2.2916 0.7231,-3.6128 0,-1.7869 -0.4266,-3.3477 -1.2835,-4.682 -0.8507,-1.3362 -2.0222,-2.3609 -3.505,-3.0756 l 7.6751,-10.6903 h -6.2745 l -7.0566,9.6149 h -4.0445 v -9.6149 h -5.5706 v 27.2416 z" fill="#a61a14"/>
    <path d="m 493.734,189.3368 h -8.7505 v -22.205 h -5.5704 v 22.205 h -8.7105 v 5.0366 h 23.0314 z" fill="#a61a14"/>
  </g>
</svg>