<svg xmlns="http://www.w3.org/2000/svg" viewBox="-30 10 300 280">
  <g transform="matrix(1.33333,0,0,-1.33333,-122.888,420.829)">
    <path d="m 176.3433,141.899 v -28.4236 c 16.4129,0.8963 31.3398,7.3743 42.9126,17.5759 l -20.1133,20.1133 c -6.3493,-5.1358 -14.2038,-8.479 -22.7993,-9.2656" fill="#80bd54"/>
    <path d="m 199.3431,217.1645 20.1055,20.1047 c -11.5228,10.226 -26.399,16.7547 -42.7739,17.7256 v -28.434 c 8.5552,-0.8485 16.3675,-4.2342 22.6684,-9.3963" fill="#44328a"/>
    <path d="m 214.7281,179.8792 c -0.8779,-8.5955 -4.3143,-16.431 -9.5355,-22.7381 l 20.1005,-20.0996 c 10.2895,11.5223 16.871,26.4249 17.8693,42.8377 z" fill="#a61a14"/>
    <path d="m 214.7485,188.3863 h 28.4267 c -0.9423,16.4098 -7.4733,31.3228 -17.712,42.8669 l -20.1079,-20.1047 c 5.1758,-6.3261 8.5607,-14.169 9.3932,-22.7622" fill="#fcbf00"/>
    <path d="m 168.1676,226.5622 v 28.4312 c -17.877,-1.0588 -33.9721,-8.7401 -45.8634,-20.6283 -12.8265,-12.8296 -20.7635,-30.547 -20.7635,-50.118 0,-19.5746 7.937,-37.2942 20.7635,-50.1185 11.8134,-11.8187 27.7892,-19.4757 45.5329,-20.6093 v 28.4446 c -9.9136,1.0618 -18.8056,5.5275 -25.4863,12.2082 -7.6969,7.6969 -12.456,18.3283 -12.456,30.075 0,11.7409 4.7591,22.3731 12.456,30.0694 6.7527,6.7555 15.7723,11.2476 25.8168,12.2457" fill="#a61a14"/>
    <path d="m 171.5496,264.746 c 0,0 -2.7504,15.9514 7.865,28.6103 0,0 9.5831,12.227 25.062,12.6967 0,0 5.3459,-13.1695 -6.19,-27.7597 0,0 -10.6682,-14.1182 -26.737,-13.5473" fill="#80bd54"/>
  </g>
</svg>
